<svg xmlns="http://www.w3.org/2000/svg" width="29.998" height="29.998" viewBox="0 0 29 29">
  <metadata><?xpacket begin="﻿" id="W5M0MpCehiHzreSzNTczkc9d"?>
<x:xmpmeta xmlns:x="adobe:ns:meta/" x:xmptk="Adobe XMP Core 5.6-c138 79.159824, 2016/09/14-01:09:01        ">
   <rdf:RDF xmlns:rdf="http://www.w3.org/1999/02/22-rdf-syntax-ns#">
      <rdf:Description rdf:about=""/>
   </rdf:RDF>
</x:xmpmeta>
                                                                                                    
                                                                                                    
                                                                                                    
                                                                                                    
                                                                                                    
                                                                                                    
                                                                                                    
                                                                                                    
                                                                                                    
                                                                                                    
                                                                                                    
                                                                                                    
                                                                                                    
                                                                                                    
                                                                                                    
                                                                                                    
                                                                                                    
                                                                                                    
                                                                                                    
                                                                                                    
                           
<?xpacket end="w"?></metadata>
<defs>
    <style>
      .cls-1 {
        fill: #fff;
        fill-rule: evenodd;
      }
    </style>
  </defs>
  <path id="ic__message_failed" data-name="ic_ message_failed" class="cls-1" d="M414.853,807.045a1,1,0,0,1,1.414.041l7.921,9.455a1,1,0,0,1-1.455,1.373l-7.921-9.455A1,1,0,0,1,414.853,807.045Zm18.3,0.59a14.493,14.493,0,1,0-27.3,9.734,0.59,0.59,0,1,0,1.111-.4,13.312,13.312,0,1,1,5.711,6.959,0.59,0.59,0,0,0-.6,1.014A14.494,14.494,0,0,0,433.151,807.635Zm-8.444-.327a0.984,0.984,0,0,0-1.426.043l-9,8.866a1.069,1.069,0,0,0,.041,1.475,0.984,0.984,0,0,0,1.426-.043l9-8.866A1.069,1.069,0,0,0,424.707,807.308Z" transform="translate(-405 -798)"/>
</svg>
